<?xml version="1.0" standalone="no"?>
<!DOCTYPE svg PUBLIC "-//W3C//DTD SVG 20010904//EN"
 "http://www.w3.org/TR/2001/REC-SVG-20010904/DTD/svg10.dtd">
<svg version="1.0" xmlns="http://www.w3.org/2000/svg"
 width="88.000000pt" height="88.000000pt" viewBox="0 0 88.000000 88.000000"
 preserveAspectRatio="xMidYMid meet">

<g transform="translate(0.000000,88.000000) scale(0.100000,-0.100000)"
fill="#000000" stroke="none">
<path d="M380 699 c-120 -23 -217 -109 -240 -212 -17 -74 6 -152 61 -211 37
-41 39 -46 33 -90 -8 -52 -1 -56 49 -29 24 14 56 18 132 18 123 0 185 20 251
78 113 99 124 239 28 346 -73 81 -201 121 -314 100z m193 -57 c93 -42 147
-115 147 -202 0 -54 -27 -115 -66 -152 -63 -58 -195 -92 -275 -70 -27 7 -42 6
-60 -4 -37 -21 -50 -18 -43 10 4 19 -3 33 -38 67 -71 72 -85 151 -42 237 33
66 99 113 189 136 38 9 146 -3 188 -22z"/>
</g>
</svg>
