<?xml version="1.0" standalone="no"?>
<!DOCTYPE svg PUBLIC "-//W3C//DTD SVG 20010904//EN"
 "http://www.w3.org/TR/2001/REC-SVG-20010904/DTD/svg10.dtd">
<svg version="1.0" xmlns="http://www.w3.org/2000/svg"
 width="88.000000pt" height="88.000000pt" viewBox="0 0 88.000000 88.000000"
 preserveAspectRatio="xMidYMid meet">

<g transform="translate(0.000000,88.000000) scale(0.100000,-0.100000)"
fill="#000000" stroke="none">
<path d="M394 691 c-27 -12 -46 -30 -57 -54 -30 -62 -15 -179 28 -227 34 -38
17 -62 -83 -111 -51 -25 -101 -54 -112 -64 -25 -22 -27 -80 -4 -89 9 -3 139
-6 289 -6 257 0 275 1 284 18 6 11 7 32 3 48 -6 25 -24 38 -117 85 -67 34
-111 63 -113 73 -2 10 9 36 25 58 23 34 28 54 31 113 3 53 0 81 -12 103 -32
61 -97 83 -162 53z m96 -36 c34 -18 41 -37 41 -111 0 -46 -6 -66 -30 -106 -17
-27 -31 -57 -31 -66 0 -36 36 -66 129 -110 90 -42 110 -56 111 -74 0 -5 -117
-8 -260 -8 -311 0 -315 2 -151 84 136 69 144 85 91 179 -50 89 -38 192 24 217
31 13 44 12 76 -5z"/>
</g>
</svg>
