<?xml version="1.0" standalone="no"?>
<!DOCTYPE svg PUBLIC "-//W3C//DTD SVG 20010904//EN"
 "http://www.w3.org/TR/2001/REC-SVG-20010904/DTD/svg10.dtd">
<svg version="1.0" xmlns="http://www.w3.org/2000/svg"
 width="88.000000pt" height="88.000000pt" viewBox="0 0 88.000000 88.000000"
 preserveAspectRatio="xMidYMid meet">

<g transform="translate(0.000000,88.000000) scale(0.100000,-0.100000)"
fill="#000000" stroke="none">
<path d="M377 729 c-125 -29 -223 -139 -242 -270 -9 -61 16 -157 56 -215 105
-153 321 -178 463 -52 62 54 96 122 103 207 13 155 -81 286 -233 326 -64 17
-91 17 -147 4z m165 -49 c58 -22 124 -82 153 -140 27 -52 31 -147 10 -211 -23
-68 -94 -140 -161 -163 -218 -74 -423 119 -360 339 14 45 29 69 70 111 82 81
182 104 288 64z"/>
<path d="M488 529 l-98 -49 -45 -90 c-41 -81 -54 -120 -40 -120 3 0 48 21 100
47 l96 48 50 99 c28 54 47 102 42 106 -4 5 -52 -14 -105 -41z m14 -80 c-21
-39 -38 -56 -74 -75 -26 -13 -50 -24 -53 -24 -3 0 6 22 20 50 19 38 36 55 73
74 26 14 50 25 54 26 4 0 -5 -23 -20 -51z"/>
</g>
</svg>
