<?xml version="1.0" standalone="no"?>
<!DOCTYPE svg PUBLIC "-//W3C//DTD SVG 20010904//EN"
 "http://www.w3.org/TR/2001/REC-SVG-20010904/DTD/svg10.dtd">
<svg version="1.0" xmlns="http://www.w3.org/2000/svg"
 width="88.000000pt" height="88.000000pt" viewBox="0 0 88.000000 88.000000"
 preserveAspectRatio="xMidYMid meet">

<g transform="translate(0.000000,88.000000) scale(0.100000,-0.100000)"
fill="#000000" stroke="none">
<path d="M346 690 c-97 -30 -123 -157 -55 -277 16 -29 26 -58 24 -65 -3 -7
-54 -38 -113 -68 -85 -44 -109 -61 -117 -83 -6 -19 -6 -34 1 -45 10 -15 39
-17 294 -17 255 0 284 2 294 17 7 11 7 26 1 45 -8 22 -32 39 -118 83 -110 56
-131 78 -104 108 52 60 70 190 34 245 -33 50 -89 73 -141 57z m81 -50 c55 -33
57 -138 6 -213 -34 -48 -34 -93 -2 -120 13 -11 62 -38 109 -60 79 -36 99 -51
100 -69 0 -5 -117 -8 -260 -8 -311 0 -315 2 -150 85 123 61 143 84 116 134 -7
14 -23 44 -35 66 -38 71 -24 165 29 192 34 17 50 16 87 -7z"/>
<path d="M550 505 c0 -21 32 -26 130 -23 71 3 85 6 88 21 3 15 -7 17 -107 17
-91 0 -111 -3 -111 -15z"/>
<path d="M617 424 c-3 -3 -3 -12 0 -20 4 -10 25 -14 79 -14 67 0 74 2 74 20 0
18 -7 20 -73 20 -41 0 -76 -3 -80 -6z"/>
<path d="M685 331 c-3 -2 -5 -10 -5 -18 0 -9 14 -13 46 -13 38 0 45 3 42 18
-2 12 -13 17 -41 17 -21 1 -40 -1 -42 -4z"/>
</g>
</svg>
